<mxfile host="app.diagrams.net" modified="2024-03-29T19:41:22.863Z" agent="Mozilla/5.0 (Windows NT 10.0; Win64; x64) AppleWebKit/537.36 (KHTML, like Gecko) Chrome/123.0.0.0 Safari/537.36" version="24.1.0" etag="DnW2fMG1KUjVyMiIRG4C" type="github">
  <diagram name="PÃ¡gina-1" id="33Hqgs6I-lTRNJ6LW--y">
    <mxGraphModel>
      <root>
        <mxCell id="0" />
        <mxCell id="1" parent="0" />
      </root>
    </mxGraphModel>
  </diagram>
</mxfile>
